<?xml version="1.0" encoding="utf-8"?>
<!-- Generator: Adobe Illustrator 21.1.0, SVG Export Plug-In . SVG Version: 6.00 Build 0)  -->
<svg version="1.1" baseProfile="tiny" id="圖層_1"
	 xmlns="http://www.w3.org/2000/svg" xmlns:xlink="http://www.w3.org/1999/xlink" x="0px" y="0px" viewBox="0 0 127 124"
	 overflow="scroll" xml:space="preserve">
<g>
	<path fill="#FFFFFF" d="M70,10c0.3,0,0.7,0,1,0c0,2.3,0,4.5,0,7.3c6.4,0,12.2,0,17.8,0c0,8.8,0,17,0,26
		C83.5,38.1,78.7,33.2,71,32.8c0,6,0,18.2,0,19.2s1.5,1.5,2.6,1.8c7.7,2,14.8,4.8,20,11.8C97,61,95,48,90,44c1-6,0.9-10.3,1-16
		c7,2,18,8,18,33S94.9,92,92.9,93.8c0.5-3.4,0.9-5.5,1.2-7.5c-3.2,9.3-9.4,15.3-18.9,17.3C68.3,105,63.7,109.4,59,114
		c-0.3,0-0.7,0-1,0c0-2.6,0-5.3,0-8.3c-7.1-0.3-13.9-0.6-21-0.9c0-8.8,0-17.2,0-25.7c-0.2,0-0.4,0-0.6,0c-0.8,4.6-1.5,9.1-2.3,14.2
		c-21.2-18.6-16-52-1.3-62.1c-0.2,2.4-0.4,4.7-0.6,7c3.4-11.2,9-16,20.3-19.5C58.6,16.7,64.2,12.9,70,10z M34.5,55.2
		c-3,19.5,10.7,33.5,23.2,33.9c0-6.7,0-13.4,0-20.4C48.5,67,40,64.4,34.5,55.2z M71.2,89.2c5-2,8.9-4.3,9.2-9.7
		c0.2-4-3.2-6.9-9.2-8.2C71.2,77,71.2,82.8,71.2,89.2z M57.9,33.2c-5,1.9-8.1,4.8-7.7,9.7c0.4,4.2,3.1,6.9,7.7,7.9
		C57.9,44.9,57.9,39.4,57.9,33.2z"/>
</g>
</svg>
