<?xml version="1.0" encoding="utf-8"?>
<!-- Generator: Adobe Illustrator 16.0.0, SVG Export Plug-In . SVG Version: 6.00 Build 0)  -->
<!DOCTYPE svg PUBLIC "-//W3C//DTD SVG 1.1//EN" "http://www.w3.org/Graphics/SVG/1.1/DTD/svg11.dtd">
<svg version="1.1" id="Capa_1" xmlns="http://www.w3.org/2000/svg" xmlns:xlink="http://www.w3.org/1999/xlink" x="0px" y="0px"
	 width="450px" height="450px" viewBox="0 0 450 450" enable-background="new 0 0 450 450" xml:space="preserve">
<g>
	<g>
		<g>
			<path fill="#9052E8" d="M225,0C100.561,0,0,100.561,0,225c0,124.438,100.561,225,225,225c124.438,0,225-100.562,225-225
				C450,100.561,349.438,0,225,0z M225,412.622c-103.408,0-187.623-84.214-187.623-187.622S121.592,37.377,225,37.377
				S412.622,121.592,412.622,225S328.408,412.622,225,412.622z"/>
		</g>
		<path fill="#9052E8" d="M293.234,272.57c0-37.652-30.675-68.233-68.234-68.233c-14.878,0-26.908-12.031-26.908-26.908
			c0-14.878,12.03-26.908,26.908-26.908c7.53,0,14.51,3.03,19.653,8.449c7.806,8.357,20.938,8.725,29.204,0.918
			c8.354-7.806,8.725-20.939,0.918-29.204c-7.99-8.541-18.094-14.786-29.021-18.275v-12.031c0-11.388-9.275-20.663-20.663-20.663
			s-20.663,9.275-20.663,20.663v12.031c-27.551,8.816-47.569,34.623-47.569,65.112c0,37.653,30.673,68.234,68.232,68.234
			c14.878,0,26.908,12.03,26.908,26.908s-12.03,26.907-26.908,26.907c-7.53,0-14.51-3.029-19.651-8.447
			c-7.808-8.357-20.938-8.725-29.204-0.919c-8.356,7.806-8.727,20.938-0.918,29.204c7.987,8.541,18.092,14.785,29.021,18.273v12.03
			c0,11.388,9.275,20.664,20.663,20.664s20.663-9.276,20.663-20.664v-12.03C273.214,328.867,293.234,303.061,293.234,272.57z"/>
	</g>
</g>
</svg>
