<?xml version="1.0" encoding="utf-8"?>
<!-- Generator: Adobe Illustrator 22.0.1, SVG Export Plug-In . SVG Version: 6.00 Build 0)  -->
<svg version="1.1" id="Capa_1" xmlns="http://www.w3.org/2000/svg" xmlns:xlink="http://www.w3.org/1999/xlink" x="0px" y="0px"
	 viewBox="0 0 18.7 23.4" style="enable-background:new 0 0 18.7 23.4;" xml:space="preserve">
<style type="text/css">
	.st0{fill:#8036EA;}
</style>
<g>
	<path class="st0" d="M12.4,15.2c0.4-0.7,1.1-1.1,1.9-1.1c0.9,0,1.3-0.4,1.3-1.3c0-0.9,0.4-1.5,1.1-1.9c0.7-0.4,0.9-1,0.5-1.8
		c-0.4-0.7-0.4-1.5,0-2.2c0.4-0.7,0.3-1.3-0.5-1.8C16,4.6,15.6,4,15.6,3.1c0-0.9-0.4-1.3-1.3-1.3c-0.9,0-1.5-0.4-1.9-1.1
		c-0.4-0.7-1-0.9-1.8-0.5c-0.7,0.4-1.5,0.4-2.2,0C7.6-0.2,7.1,0,6.6,0.7C6.2,1.4,5.5,1.8,4.7,1.8c-0.9,0-1.3,0.4-1.3,1.3
		C3.4,4,3,4.6,2.3,5.1c-0.7,0.4-0.9,1-0.5,1.8c0.4,0.7,0.4,1.5,0,2.2c-0.4,0.7-0.3,1.3,0.5,1.8c0.7,0.4,1.1,1.1,1.1,1.9
		c0,0.9,0.4,1.3,1.3,1.3c0.9,0,1.5,0.4,1.9,1.1c0.4,0.7,1,0.9,1.8,0.5c0.7-0.4,1.5-0.4,2.2,0C11.4,16.1,12,15.9,12.4,15.2z
		 M9.5,12.6c-2.6,0-4.7-2.1-4.7-4.7c0-2.6,2.1-4.7,4.7-4.7c2.6,0,4.7,2.1,4.7,4.7C14.2,10.5,12.1,12.6,9.5,12.6z"/>
	<path class="st0" d="M4.6,14.7c-0.9,0-1-0.4-1-0.4l-3.5,6.9l2.8-0.3l1.6,2.3c0,0,3.2-6.8,3.2-6.7C6,16.5,6.7,14.8,4.6,14.7z"/>
	<path class="st0" d="M15.4,14.6c-2.6,0.3-2,0.9-2.6,1.4c-0.7,0.7-1.5,0.6-1.5,0.6l4,6.8l1-2.5l2.8,0.4L15.4,14.6z"/>
	<polygon class="st0" points="10.5,6.9 9.5,4.9 8.5,6.9 6.3,7.2 7.9,8.8 7.5,11 9.5,9.9 11.5,11 11.1,8.8 12.7,7.2 	"/>
</g>
</svg>
