<?xml version="1.0" encoding="utf-8"?>
<!-- Generator: Adobe Illustrator 22.0.1, SVG Export Plug-In . SVG Version: 6.00 Build 0)  -->
<svg version="1.1" id="Capa_1" xmlns="http://www.w3.org/2000/svg" xmlns:xlink="http://www.w3.org/1999/xlink" x="0px" y="0px"
	 viewBox="0 0 381.9 450.2" style="enable-background:new 0 0 381.9 450.2;" xml:space="preserve">
<style type="text/css">
	.st0{fill:#8036EA;}
</style>
<g>
	<g>
		<g>
			<path class="st0" d="M270.4,218.2h30.2c45.1,0,81.8-36.7,81.8-81.8c0-43-33.4-78.4-75.6-81.6V45h6.6c6.1,0,11-4.9,11-11V11
				c0-6-4.9-11-11-11H69.1c-6,0-11,4.9-11,11v22.9c0,6,4.9,11,11,11h6.6v9.9C62.5,55.8,49.8,60,38.5,67c-3.1,1.9-4,6-2.1,9.1
				s6,4,9.1,2.1C54.6,72.5,64.9,69,75.7,68v21.9C52.8,93,35,112.7,35,136.4c0,25.9,21.1,46.9,46.9,46.9h4.8
				c3.7,7.8,8.2,15,13.4,21.7H81.9c-37.9,0-68.7-30.8-68.7-68.7c0-10.7,2.4-21,7.1-30.5c1.6-3.3,0.3-7.2-3-8.8s-7.2-0.3-8.8,3
				C2.9,111.4,0,123.6,0,136.4c0,45.1,36.7,81.8,81.8,81.8H112c13.8,12.9,30.7,22.5,49.4,27.5v57.6H94.9
				c-12.9,0-23.4,10.5-23.4,23.4v78.5c-5.6,0.5-10,5.2-10,10.9V439c0,6,4.9,11,11,11h237.7c6.1,0,11-4.9,11-11v-22.9
				c0-5.7-4.4-10.4-10-10.9v-17.8c0-3.6-2.9-6.6-6.6-6.6c-3.6,0-6.6,2.9-6.6,6.6v17.7H84.7v-78.5c0-5.6,4.6-10.2,10.2-10.2h192.8
				c5.6,0,10.2,4.6,10.2,10.2v19.5c0,3.6,2.9,6.6,6.6,6.6c3.6,0,6.6-2.9,6.6-6.6v-19.5c0-12.9-10.5-23.4-23.4-23.4H221v-57.6
				C239.7,240.7,256.6,231.1,270.4,218.2z M304.5,418.3h3.5v18.5H74.6v-18.5h3.5H304.5z M369.2,136.3c0,37.9-30.8,68.7-68.7,68.7
				h-18.2c5.2-6.7,9.7-14,13.4-21.7h4.8c25.9,0,46.9-21.1,46.9-46.9c0-23.7-17.7-43.4-40.7-46.5V68
				C341.8,71.1,369.2,100.6,369.2,136.3z M301.1,170.1c3.7-11.4,5.8-23.5,5.8-36.1v-30.8c15.6,3,27.5,16.7,27.5,33.2
				C334.3,154.8,319.5,169.8,301.1,170.1z M48.2,136.3c0-16.5,11.9-30.2,27.5-33.2v30.8c0,12.6,2,24.7,5.8,36.1
				C63.1,169.8,48.2,154.8,48.2,136.3z M71.3,31.7L71.3,31.7V13.2h239.9v18.5H71.3z M207.8,303.3h-33v-54.9
				c5.4,0.8,10.9,1.2,16.5,1.2s11.1-0.4,16.5-1.2V303.3L207.8,303.3z M191.3,236.4c-56.5,0-102.4-46-102.4-102.4V44.9h204.8V134
				C293.7,190.5,247.7,236.4,191.3,236.4z"/>
		</g>
	</g>
	<g>
		<g>
			<path class="st0" d="M251.8,109.9c-1.2-3.9-4.5-6.6-8.5-7.2l-29.4-4.3l-13.1-26.6c-1.8-3.6-5.4-5.9-9.5-5.9l0,0
				c-4.1,0-7.7,2.3-9.5,5.9l-13.1,26.6l-29.4,4.3c-4,0.6-7.3,3.3-8.5,7.2c-1.3,3.9-0.2,8,2.7,10.8l21.2,20.7l-5,29.2
				c-0.7,4,0.9,8,4.2,10.3c1.9,1.3,4,2,6.2,2c1.7,0,3.4-0.4,4.9-1.2l26.3-13.8l26.3,13.8c3.6,1.9,7.8,1.6,11.1-0.8
				c3.3-2.4,4.9-6.3,4.2-10.3l-5-29.2l21.2-20.7C252,117.9,253,113.7,251.8,109.9z M217.7,132.9c-2.5,2.4-3.6,5.9-3,9.4l4.4,25.4
				l-22.8-12c-1.5-0.8-3.2-1.2-4.9-1.2c-1.7,0-3.4,0.4-4.9,1.2l-22.8,12l4.4-25.4c0.6-3.4-0.5-6.9-3-9.4l-18.4-18l25.5-3.7
				c3.4-0.5,6.4-2.7,8-5.8l11.4-23.1l11.4,23.1c1.5,3.1,4.5,5.3,8,5.8l25.5,3.7L217.7,132.9z"/>
		</g>
	</g>
</g>
</svg>
