<?xml version="1.0" encoding="utf-8"?>
<!-- Generator: Adobe Illustrator 16.0.0, SVG Export Plug-In . SVG Version: 6.00 Build 0)  -->
<!DOCTYPE svg PUBLIC "-//W3C//DTD SVG 1.1//EN" "http://www.w3.org/Graphics/SVG/1.1/DTD/svg11.dtd">
<svg version="1.1" id="圖層_1" xmlns="http://www.w3.org/2000/svg" xmlns:xlink="http://www.w3.org/1999/xlink" x="0px" y="0px"
	 width="450.043px" height="450px" viewBox="244.979 0 450.043 450" enable-background="new 244.979 0 450.043 450"
	 xml:space="preserve">
<path fill="#8036EA" d="M500.523,225L688.699,36.824c8.43-8.429,8.43-22.094,0-30.523c-8.429-8.429-22.094-8.429-30.523,0
	L470,194.477L281.824,6.329c-8.429-8.429-22.094-8.429-30.523,0s-8.429,22.094,0,30.523l188.176,188.176L251.329,413.176
	c-8.429,8.43-8.429,22.095,0,30.523c4.229,4.201,9.724,6.329,15.248,6.329c5.523,0,11.047-2.1,15.247-6.329L470,255.523
	l188.176,188.176c4.229,4.201,9.725,6.329,15.248,6.329s11.047-2.1,15.247-6.329c8.429-8.429,8.429-22.094,0-30.523L500.523,225z"/>
</svg>
