<?xml version="1.0" encoding="utf-8"?>
<!-- Generator: Adobe Illustrator 16.0.0, SVG Export Plug-In . SVG Version: 6.00 Build 0)  -->
<!DOCTYPE svg PUBLIC "-//W3C//DTD SVG 1.1//EN" "http://www.w3.org/Graphics/SVG/1.1/DTD/svg11.dtd">
<svg version="1.1" id="Capa_1" xmlns="http://www.w3.org/2000/svg" xmlns:xlink="http://www.w3.org/1999/xlink" x="0px" y="0px"
	 width="450px" height="386.03px" viewBox="245 31.985 450 386.03" enable-background="new 245 31.985 450 386.03"
	 xml:space="preserve">
<g>
	<g>
		<g>
			<path fill="#9052E8" d="M410.962,274.073h226.615c12.899,0,19.825-13.858,23.445-26.327L695,88.575H353.548l33.969,159.171
				C390.218,260.364,398.067,274.073,410.962,274.073z M601.785,233.436L625.23,123.06c1.344-6.33,7.552-10.379,13.899-9.031
				c6.329,1.343,10.374,7.569,9.031,13.899l-23.445,110.376c-1.173,5.511-6.036,9.287-11.456,9.287
				c-0.806,0-1.624-0.086-2.443-0.258C604.481,245.991,600.445,239.77,601.785,233.436z M542.951,235.042l7.818-110.376
				c0.452-6.457,6.039-11.315,12.519-10.863c6.456,0.457,11.319,6.062,10.863,12.523l-7.818,110.376
				c-0.435,6.176-5.579,10.895-11.677,10.895c-0.28,0-0.557-0.009-0.842-0.026C547.357,247.104,542.493,241.498,542.951,235.042z
				 M483.487,113.799c6.406-0.466,12.066,4.407,12.519,10.863l7.814,110.376c0.462,6.456-4.411,12.062-10.863,12.523
				c-0.285,0.019-0.561,0.027-0.841,0.027c-6.099,0-11.243-4.72-11.678-10.896l-7.812-110.37
				C472.162,119.866,477.031,114.255,483.487,113.799z M407.646,114.029c6.339-1.343,12.551,2.701,13.899,9.031l23.445,110.376
				c1.344,6.33-2.696,12.556-9.035,13.899c-0.819,0.177-1.638,0.259-2.443,0.259c-5.416,0-10.284-3.778-11.456-9.289L398.61,127.929
				C397.267,121.594,401.312,115.373,407.646,114.029z"/>
			<path fill="#9052E8" d="M425.792,337.943c-22.11,0-40.035,17.926-40.035,40.036s17.926,40.035,40.035,40.035
				c22.11,0,40.036-17.925,40.036-40.035C465.829,355.868,447.903,337.943,425.792,337.943z M425.792,392.991
				c-8.293,0-15.011-6.719-15.011-15.012c0-8.289,6.718-15.012,15.011-15.012c8.294,0,15.012,6.724,15.012,15.012
				C440.81,386.272,434.086,392.991,425.792,392.991z"/>
			<path fill="#9052E8" d="M615.965,337.943c-22.115,0-40.041,17.926-40.041,40.036s17.926,40.035,40.041,40.035
				c22.11,0,40.035-17.925,40.035-40.035C656,355.868,638.075,337.943,615.965,337.943z M615.965,392.991
				c-8.293,0-15.012-6.719-15.012-15.012c0-8.289,6.719-15.012,15.012-15.012c8.289,0,15.012,6.724,15.012,15.012
				C630.98,386.272,624.253,392.991,615.965,392.991z"/>
		</g>
		<path fill="#9052E8" d="M676.604,321.615H373.582c-10.904,0-20.237-7.42-22.694-18.039L294.198,59.131h-35.625
			c-7.497,0-13.573-6.076-13.573-13.573s6.076-13.573,13.573-13.573h38.688c10.895,0,20.229,7.416,22.694,18.025l56.694,244.459
			h299.959c7.497,0,13.572,6.076,13.572,13.574C690.178,315.543,684.105,321.615,676.604,321.615z"/>
	</g>
</g>
</svg>
