<?xml version="1.0" encoding="utf-8"?>
<!-- Generator: Adobe Illustrator 22.0.0, SVG Export Plug-In . SVG Version: 6.00 Build 0)  -->
<svg version="1.1" id="圖層_1" xmlns="http://www.w3.org/2000/svg" xmlns:xlink="http://www.w3.org/1999/xlink" x="0px" y="0px"
	 viewBox="0 0 30 30" style="enable-background:new 0 0 30 30;" xml:space="preserve">
<style type="text/css">
	.st0{opacity:0.7;}
	.st1{fill:#FFFFFF;}
</style>
<g class="st0">
	<g>
		<path class="st1" d="M26,12.4c-0.1-0.2-0.2-0.4-0.4-0.4l-6.8-1.1l-3.1-6.5C15.4,4.1,15.2,4,15,4s-0.4,0.1-0.6,0.3l-3.1,6.5
			l-6.8,1.1c-0.2,0-0.4,0.1-0.4,0.4C4,12.6,4,12.8,4.2,13l5,5.1L8,25.2c0,0.2,0,0.4,0.2,0.7C8.4,26,8.5,26,8.6,26
			c0.1,0,0.1,0,0.2-0.1l6.2-3.4l6.2,3.4c0.1,0,0.1,0.1,0.2,0.1c0.3,0,0.7-0.2,0.7-0.7v-0.1l-1.2-7.1l5-5.1C26,12.8,26,12.6,26,12.4
			L26,12.4z M19.7,17.4c-0.1,0.1-0.1,0.3-0.1,0.6l1,6.3l-5.4-3c-0.1-0.1-0.4-0.1-0.6,0l-5.4,3l1-6.3c0-0.1,0-0.4-0.1-0.6L5.8,13
			l6.1-1c0.1,0,0.4-0.1,0.4-0.3l2.5-5.6l2.6,5.7c0.1,0.1,0.2,0.3,0.4,0.3L24,13L19.7,17.4z"/>
	</g>
</g>
</svg>
