<?xml version="1.0" encoding="utf-8"?>
<!-- Generator: Adobe Illustrator 22.0.0, SVG Export Plug-In . SVG Version: 6.00 Build 0)  -->
<svg version="1.1" id="圖層_1" xmlns="http://www.w3.org/2000/svg" xmlns:xlink="http://www.w3.org/1999/xlink" x="0px" y="0px"
	 viewBox="0 0 30 30" style="enable-background:new 0 0 30 30;" xml:space="preserve">
<style type="text/css">
	.st0{fill:#FFFFFF;}
</style>
<path class="st0" d="M26,12.4c-0.1-0.2-0.2-0.4-0.4-0.4l-6.9-1.1l-3.1-6.5C15.4,4.1,15.2,4,14.9,4c-0.2,0-0.4,0-0.6,0.3l-3.1,6.5
	l-6.9,1.1C4.2,11.9,4,12,4,12.4s0,0.4,0.1,0.7l5,5.1L8,25.2c0,0.2,0,0.4,0.2,0.7C8.3,26,8.4,26,8.5,26c0.1,0,0.1,0,0.2-0.1l6.2-3.4
	l6.2,3.4c0.1,0,0.1,0.1,0.2,0.1c0.3,0,0.7-0.2,0.7-0.7v-0.1l-1.2-7.1l5-5.1C26,12.8,26,12.5,26,12.4z"/>
</svg>
