<?xml version="1.0" encoding="utf-8"?>
<!-- Generator: Adobe Illustrator 22.0.0, SVG Export Plug-In . SVG Version: 6.00 Build 0)  -->
<svg version="1.1" id="圖層_1" xmlns="http://www.w3.org/2000/svg" xmlns:xlink="http://www.w3.org/1999/xlink" x="0px" y="0px"
	 viewBox="0 0 30 30" style="enable-background:new 0 0 30 30;" xml:space="preserve">
<style type="text/css">
	.st0{opacity:0.7;}
	.st1{fill:#FFFFFF;}
</style>
<g class="st0">
	<path class="st1" d="M22.3,8.6c0-3.9-3.3-7.1-7.3-7.1S7.7,4.7,7.7,8.6c0,4.5,4.7,10.7,6.6,13c0.4,0.5,1.1,0.5,1.5,0
		C17.7,19.3,22.3,13.1,22.3,8.6L22.3,8.6z M11.4,8.2c0-1.9,1.6-3.5,3.6-3.5s3.6,1.6,3.6,3.5S17,11.7,15,11.7S11.4,10.1,11.4,8.2
		L11.4,8.2z"/>
	<path class="st1" d="M16.8,8.2"/>
	<path class="st1" d="M19.1,20.1c-0.6,0.8-1.2,1.6-1.6,2.2c4.6,0.3,7.7,1.2,8.8,2c-1.3,0.8-5.3,2-11.3,2c-6.1,0-10-1.2-11.3-2
		c1.1-0.7,4.2-1.7,8.8-2c-0.5-0.6-1-1.3-1.6-2.1c-5.8,0.4-9.9,2.1-9.9,4c0,2.4,6.3,4.3,14,4.3s14-1.9,14-4.3
		C29,22.3,24.9,20.6,19.1,20.1L19.1,20.1z"/>
</g>
</svg>
